<?xml version="1.0" encoding="UTF-8"?>
<svg version="1.1" viewBox="0 0 1000 1000" xmlns="http://www.w3.org/2000/svg">
 <g transform="translate(0 -52.362)">
  <circle cx="500" cy="552.36" r="443.92" fill="#409fe2"/>
  <path transform="translate(0 52.362)" d="m500 140.8c-24.75 0-48.963 2.5096-72.357 7.2969s-45.972 11.85-67.471 20.943c-21.499 9.0933-41.921 20.217-61.027 33.125s-36.897 27.6-53.139 43.842-30.936 34.032-43.844 53.139-24.03 39.53-33.123 61.029c-9.0933 21.499-16.156 44.074-20.943 67.469s-7.2988 47.607-7.2988 72.357 2.5116 48.965 7.2988 72.359 11.85 45.97 20.943 67.469c9.0933 21.499 20.215 41.923 33.123 61.029s27.602 36.897 43.844 53.139 34.032 30.934 53.139 43.842 39.528 24.032 61.027 33.125c21.499 9.0933 44.076 16.156 67.471 20.943s47.607 7.2969 72.357 7.2969 48.963-2.5096 72.357-7.2969 45.972-11.85 67.471-20.943a32.003 32.003 0 0 0 0.10938 -0.04687c40.81-17.441 79.994-43.478 113.85-76.713a32.003 32.003 0 0 0 0.20898 -0.20703c16.242-16.242 30.936-34.032 43.844-53.139a32.003 32.003 0 0 0 0.06445 -0.09765c25.047-37.37 43.849-81.086 53.939-128.1a32.003 32.003 0 0 0 0.0625 -0.29882c4.7872-23.395 7.2988-47.609 7.2988-72.359s-2.5116-48.963-7.2988-72.357-11.85-45.97-20.943-67.469c-9.0933-21.499-20.215-41.923-33.123-61.029s-27.602-36.897-43.844-53.139-34.032-30.934-53.139-43.842-39.528-24.032-61.027-33.125c-21.499-9.0933-44.076-16.156-67.471-20.943-23.395-4.7872-47.607-7.2969-72.357-7.2969zm0 64c20.427 0 40.322 2.068 59.527 5.998 19.206 3.93 37.722 9.7235 55.369 17.188 17.647 7.464 34.423 16.599 50.131 27.211s30.349 22.702 43.713 36.066 25.452 28.003 36.064 43.711 19.749 32.486 27.213 50.133 13.257 36.162 17.188 55.367c3.93 19.206 5.998 39.1 5.998 59.527 0 20.374-2.0605 40.218-5.9707 59.377-8.3662 38.887-24.09 75.287-44.451 105.68-10.58 15.655-22.625 30.247-35.939 43.574-28.074 27.534-60.865 49.234-93.994 63.402-17.632 7.4541-36.132 13.242-55.32 17.168-19.206 3.93-39.1 5.998-59.527 5.998s-40.322-2.068-59.527-5.998c-19.206-3.93-37.722-9.7235-55.369-17.188-17.647-7.464-34.423-16.599-50.131-27.211s-30.349-22.702-43.713-36.066-25.452-28.003-36.064-43.711-19.749-32.486-27.213-50.133-13.257-36.164-17.188-55.369c-3.93-19.206-5.998-39.1-5.998-59.527s2.068-40.322 5.998-59.527c3.93-19.206 9.7235-37.72 17.188-55.367 7.464-17.647 16.601-34.425 27.213-50.133s22.7-30.347 36.064-43.711 28.005-25.454 43.713-36.066 32.484-19.747 50.131-27.211 36.164-13.257 55.369-17.188c19.206-3.93 39.1-5.998 59.527-5.998zm0 263.23a31.974 31.974 0 0 0 -31.975 31.975 31.974 31.974 0 0 0 31.975 31.975 31.974 31.974 0 0 0 31.975 -31.975 31.974 31.974 0 0 0 -31.975 -31.975z" color="#000000" color-rendering="auto" fill="#e4ff1e" image-rendering="auto" shape-rendering="auto" solid-color="#000000" style="block-progression:tb;isolation:auto;mix-blend-mode:normal;text-decoration-color:#000000;text-decoration-line:none;text-decoration-style:solid;text-indent:0;text-transform:none;white-space:normal"/>
  <path d="m500 477.97v-157.81" fill="none" stroke="#e4ff1e" stroke-linecap="round" stroke-linejoin="round" stroke-width="44"/>
  <path d="m372.48 678.81 73.116-73.116" fill="none" stroke="#e4ff1e" stroke-linecap="round" stroke-linejoin="round" stroke-width="44"/>
 </g>
</svg>
